# xmcd CD database file
#
# Track frame offsets:
#	183
#	13995
#	23075
#	37893
#	51173
#	63433
#	75968
#	89738
#	104720
#	117940
#	131630
#	144835
#	160343
#	174088
#	187415
#	200910
#	213103
#	224123
#	238698
#	255483
#	267730
#	281718
#
# Disc length: 3936 seconds
#
# Revision: 2
# Processed by: cddbd v1.5PL3 Copyright (c) Steve Scherf et al.
# Submitted via: CDex 1.50beta10
#
DISCID=520f5e16
DTITLE=John Lee Hooker - Walking the blues
DYEAR=1951
DGENRE=Blues
TTITLE0=Dreaming the blues
TTITLE1=Hey boogie
TTITLE2=Just me and my telephone
TTITLE3=Ground hog blues
TTITLE4=High priced women
TTITLE5=Leave my wife alone
TTITLE6=Louise
TTITLE7=Ramblin' by myself
TTITLE8=Union station blues
TTITLE9=Bluebird
TTITLE10=Down at the landing
TTITLE11=Hey baby
TTITLE12=I don't want your money
TTITLE13=Lonely boy boogie
TTITLE14=Love blues
TTITLE15=Mad man blues
TTITLE16=Please don't go
TTITLE17=Sugar mama
TTITLE18=The Journey
TTITLE19=Walkin' the boogie
TTITLE20=Worried life blues
TTITLE21=Apologize
EXTD=Label: MoviePlay\nCode: RTS 33016\nADD\nCollection: "ROOTS"\n(Made in Brazil) YEAR: 1951
EXTT0=
EXTT1=
EXTT2=
EXTT3=
EXTT4=
EXTT5=
EXTT6=
EXTT7=
EXTT8=
EXTT9=
EXTT10=
EXTT11=
EXTT12=
EXTT13=
EXTT14=
EXTT15=
EXTT16=
EXTT17=
EXTT18=
EXTT19=
EXTT20=
EXTT21=
PLAYORDER=
